<?xml version="1.0" encoding="utf-8"?>
<!-- Generator: Adobe Illustrator 26.0.1, SVG Export Plug-In . SVG Version: 6.00 Build 0)  -->
<!DOCTYPE svg PUBLIC "-//W3C//DTD SVG 1.1//EN" "http://www.w3.org/Graphics/SVG/1.1/DTD/svg11.dtd" [
	<!ENTITY ns_extend "http://ns.adobe.com/Extensibility/1.0/">
	<!ENTITY ns_ai "http://ns.adobe.com/AdobeIllustrator/10.0/">
	<!ENTITY ns_graphs "http://ns.adobe.com/Graphs/1.0/">
	<!ENTITY ns_vars "http://ns.adobe.com/Variables/1.0/">
	<!ENTITY ns_imrep "http://ns.adobe.com/ImageReplacement/1.0/">
	<!ENTITY ns_sfw "http://ns.adobe.com/SaveForWeb/1.0/">
	<!ENTITY ns_custom "http://ns.adobe.com/GenericCustomNamespace/1.0/">
	<!ENTITY ns_adobe_xpath "http://ns.adobe.com/XPath/1.0/">
]>
<svg version="1.1" id="Warstwa_1" xmlns:x="&ns_extend;" xmlns:i="&ns_ai;" xmlns:graph="&ns_graphs;"
	 xmlns="http://www.w3.org/2000/svg" xmlns:xlink="http://www.w3.org/1999/xlink" x="0px" y="0px" viewBox="0 0 538.3 365"
	 style="enable-background:new 0 0 538.3 365;" xml:space="preserve">
<style type="text/css">
	.st0{fill:#E0DEFF;}
	.st1{fill:#D1CEFF;}
	.st2{fill:url(#SVGID_1_);}
	.st3{fill:#FFFFFF;}
	.st4{fill:url(#SVGID_00000078739353132061428670000013695278103276210095_);}
	.st5{fill:#E4A800;}
	.st6{fill:#382A73;}
	.st7{fill:#C4B8FF;}
	.st8{fill:#40327A;}
	.st9{fill:#FF7582;}
	.st10{fill:url(#SVGID_00000013899217020621640910000005707743720507311024_);}
	.st11{fill:url(#SVGID_00000150785083458623376070000000862327065281098929_);}
	.st12{fill:#6476EA;}
	.st13{fill:#FCC5B6;}
	.st14{fill:#1A1A1A;}
	.st15{fill:#A6BDFF;}
	.st16{fill:#FFC4B5;}
	.st17{fill:#FFC400;}
	.st18{fill:#F1B600;}
	.st19{fill:#0A1747;}
	.st20{fill:#FFE89C;}
</style>
<metadata>
	<sfw  xmlns="&ns_sfw;">
		<slices></slices>
		<sliceSourceBounds  bottomLeftOrigin="true" height="365" width="538.3" x="23.5" y="0"></sliceSourceBounds>
	</sfw>
</metadata>
<path class="st0" d="M14.9,286c-6-9.2-10.3-19.4-12.6-30.2C-3.4,229.6,2,202,13.1,177.6c5.8-12.6,13.2-24.7,23.8-33.6
	s24.6-14.4,38.3-12.5c13.2,1.9,24.8,10.3,38.1,12c20.7,2.7,74-45.7,87.6-61.6c26.4-30.7,74.4-42.7,109.6-22.9
	c23.4,13.2,85.8,57.4,101.9,63.5c19.1,7.2,39.6,10.1,59.2,15.9c19.6,5.8,39.2,15.4,50.7,32.3c5.8,8.5,9.3,18.3,11.7,28.3
	c5.7,23.9,5.7,48.8,0,72.6c-2.9,12.1-7.1,23.9-12.8,35c-2.3,4.4-4.2,9.9-8.6,11.7c-5.4,2.3-16.8-0.1-22.7-0.1
	c-59.2-0.4-118.4-0.8-177.6-1.3c-44.4-0.3-88.8-0.7-133.2-1c-23.6-0.2-47.3-0.3-70.9-0.5c-21.2-0.1-46.9,6.2-66.4-4.4
	C30.7,305.1,21.5,296.5,14.9,286z"/>
<path class="st1" d="M516.4,317c0,7-106,4.8-236.7,4.8S43,323.9,43,317s106-12.6,236.7-12.6S516.4,310,516.4,317z"/>
<linearGradient id="SVGID_1_" gradientUnits="userSpaceOnUse" x1="479.4236" y1="195.0108" x2="328.3636" y2="209.8438" gradientTransform="matrix(1 0 0 -1 0 366)">
	<stop  offset="0" style="stop-color:#8397F4"/>
	<stop  offset="1" style="stop-color:#A6BDFF"/>
</linearGradient>
<path class="st2" d="M320.3,317.7l115.3-0.1c11.4,0,22.1-9.5,24-21.1l42.6-266.2c1.9-11.7-5.9-21.1-17.2-21.1H369.7
	c-11.4,0-22.1,9.5-24,21.1l-42.6,266.2C301.2,308.2,308.9,317.7,320.3,317.7z"/>
<path class="st3" d="M488.6,89c1.1,0,2-0.8,2.2-1.9l3.1-19.4c0.2-0.8-0.3-1.7-1.2-1.9c-0.1,0-0.2,0-0.4,0c-1.1,0-2,0.8-2.2,1.9
	L487,87.1c-0.2,0.8,0.3,1.7,1.2,1.9C488.3,89,488.5,89,488.6,89z"/>
<path class="st3" d="M481.7,131.8c1.1,0,2-0.8,2.2-1.9l5.2-32.4c0.2-0.8-0.3-1.7-1.2-1.9c-0.1,0-0.2,0-0.4,0c-1.1,0-2,0.8-2.2,1.9
	l-5.2,32.4c-0.2,0.8,0.4,1.7,1.2,1.9C481.5,131.8,481.6,131.8,481.7,131.8z"/>
<linearGradient id="SVGID_00000074438224224261116600000009391671797619911810_" gradientUnits="userSpaceOnUse" x1="425.1352" y1="345.4108" x2="372.3462" y2="57.0955" gradientTransform="matrix(1 0 0 -1 0 366)">
	<stop  offset="0" style="stop-color:#FFFFFF"/>
	<stop  offset="1" style="stop-color:#ECF1FF"/>
</linearGradient>
<path style="fill:url(#SVGID_00000074438224224261116600000009391671797619911810_);" d="M319.7,312.2l110.9-0.1
	c8.1,0,15.7-6.7,17-15l42.9-267.6c1.3-8.3-4.2-15-12.2-15l-110.9,0.1c-8.1,0-15.7,6.7-17,15l-42.9,267.6
	C306.1,305.5,311.6,312.2,319.7,312.2z"/>
<path class="st5" d="M381.2,132.5l1.7,70.3c0.2,6.6,5.6,11.7,12.2,11.6l36.9-0.9c21.4-28.5,23.5-71.3,22.5-94.6l-61.7,1.6
	C386.3,120.5,381.1,125.9,381.2,132.5z"/>
<path class="st5" d="M432,213.4l27.7-0.7c6.5-0.2,11.7-5.6,11.6-12.2l-1.7-70.3c-0.2-6.6-5.6-11.7-12.2-11.6l-2.9,0.1
	C455.5,142,453.4,184.8,432,213.4z"/>
<path class="st6" d="M382.9,134.2l0.1,4l84.8-2.4l-0.1-4L382.9,134.2z"/>
<path class="st6" d="M418.2,185c-1.7-0.7-2.9-2.3-2.9-4.2l-0.3-22.7c0-1.2,0.4-2.4,1.3-3.2c0.8-0.9,2-1.4,3.2-1.4l15.6-0.1
	c2.5,0,4.5,1.9,4.6,4.4l0.8,22.6c0.1,1.2-0.4,2.4-1.2,3.3c-0.8,0.9-2,1.4-3.2,1.4l-16.1,0.2C419.3,185.3,418.8,185.2,418.2,185z
	 M436.5,154.2c-0.5-0.2-1-0.3-1.5-0.3l-15.6,0.1c-1.1,0-2.1,0.4-2.8,1.2c-0.7,0.8-1.1,1.8-1.1,2.8l0.3,22.7c0,2.2,1.8,3.9,4,3.9
	l16.1-0.2c1.1,0,2.1-0.5,2.8-1.2c0.7-0.8,1.1-1.8,1.1-2.9l-0.8-22.6C439,156.2,438,154.8,436.5,154.2z"/>
<path class="st6" d="M415.4,162.9l0.1,4l24.1-0.6l-0.1-4L415.4,162.9z"/>
<path class="st6" d="M461.1,207.2c0.2,0,0.3-0.1,0.3-0.3l-1.7-72.1c0-0.2-0.1-0.3-0.3-0.3c-0.2,0-0.3,0.1-0.3,0.3l1.7,72.1
	c0,0.1,0.1,0.2,0.2,0.3H461.1z"/>
<path class="st6" d="M394.7,206.4c0.2,0,0.3-0.1,0.3-0.3l-2-68.9c0-0.2-0.1-0.3-0.3-0.3c-0.2,0-0.3,0.1-0.3,0.3l2,68.9
	c0,0.1,0.1,0.2,0.2,0.3H394.7z"/>
<path class="st7" d="M471.7,320.5H72.5v2.8h399.2V320.5z"/>
<path class="st1" d="M297.8,362.2H265v2.8h32.8V362.2z"/>
<path class="st1" d="M317.5,362.2h-10v2.8h9.9v-2.8H317.5z"/>
<path class="st1" d="M352.6,341.2H202.9v2.8h149.7V341.2z"/>
<path class="st1" d="M185.1,341.2h-49.5v2.8h49.5V341.2z"/>
<path class="st1" d="M396.5,341.2h-19v2.8h19V341.2z"/>
<path class="st8" d="M257.2,320.5h-81.4v2.8h81.4V320.5z"/>
<path class="st8" d="M153.5,320.5h-7v2.8h7.1v-2.8H153.5z"/>
<path class="st8" d="M412.2,320.5h-9.9v2.8h9.9V320.5z"/>
<path class="st8" d="M384.4,320.5h-47.5v2.8h47.5V320.5z"/>
<path class="st7" d="M510.1,320.5h-17.4v2.8h17.4V320.5z"/>
<path class="st7" d="M56.6,320.5h-8.7v2.8h8.7V320.5z"/>
<path class="st1" d="M274,29.3c-5.8,0-10.4-4.7-10.4-10.4c0-5.8,4.7-10.4,10.4-10.4c5.8,0,10.4,4.7,10.4,10.4S279.7,29.3,274,29.3z
	 M274,10.8c-4.4,0-8,3.6-8,8s3.6,8,8,8c4.4,0,8-3.6,8-8C281.9,14.4,278.4,10.9,274,10.8z"/>
<path class="st1" d="M185,0h-2.5v7.9h2.5V0z"/>
<path class="st1" d="M185,47.4h-2.5v7.9h2.5V47.4z"/>
<path class="st1" d="M171.1,3.1L169,4.3l3.9,6.8l2.1-1.2L171.1,3.1z"/>
<path class="st1" d="M194.7,44.1l-2.1,1.2l3.9,6.8l2.1-1.2L194.7,44.1z"/>
<path class="st1" d="M160.5,12.8l-1.2,2.1l6.8,3.9l1.2-2.1L160.5,12.8z"/>
<path class="st1" d="M201.5,36.4l-1.2,2.1l6.8,3.9l1.2-2.1L201.5,36.4z"/>
<path class="st1" d="M164.1,26.4h-7.9v2.5h7.9V26.4z"/>
<path class="st1" d="M211.4,26.4h-7.9v2.5h7.9V26.4z"/>
<path class="st1" d="M166.1,36.4l-6.8,3.9l1.2,2.1l6.8-3.9L166.1,36.4z"/>
<path class="st1" d="M207.1,12.8l-6.8,3.9l1.2,2.1l6.8-3.9L207.1,12.8z"/>
<path class="st1" d="M172.9,44.1l-3.9,6.8l2.1,1.2l3.9-6.8L172.9,44.1z"/>
<path class="st1" d="M196.5,3.1l-3.9,6.8l2.1,1.2l3.9-6.8L196.5,3.1z"/>
<path class="st1" d="M317.8,52.2h-2.5c0-8.8-7.1-16-15.9-16v-2.5c8.8,0,15.9-7.2,15.9-16h2.5c0,8.8,7.1,16,15.9,16v2.5
	C324.9,36.2,317.8,43.4,317.8,52.2z M306,35c4.8,1.9,8.7,5.7,10.6,10.6c1.9-4.9,5.7-8.7,10.6-10.6c-4.8-1.9-8.7-5.7-10.6-10.6
	C314.7,29.3,310.8,33.2,306,35z"/>
<path class="st9" d="M251.5,142.6c0,0,19-14.2,19.9-31.3c0.7-11.5-8.9-20-19.9-20s-20.6,8.4-19.9,20
	C232.5,128.4,251.5,142.6,251.5,142.6z"/>
<path class="st3" d="M251.5,118.7c4.4,0,8-3.6,8-8c0-4.4-3.6-8-8-8s-8,3.6-8,8C243.5,115.1,247.1,118.7,251.5,118.7z"/>
<linearGradient id="SVGID_00000027587729911529547870000001283979470053204889_" gradientUnits="userSpaceOnUse" x1="31.1371" y1="202.55" x2="231.0865" y2="202.55" gradientTransform="matrix(1 0 0 -1 0 366)">
	<stop  offset="0" style="stop-color:#8397F4"/>
	<stop  offset="1" style="stop-color:#A6BDFF"/>
</linearGradient>
<path style="fill:url(#SVGID_00000027587729911529547870000001283979470053204889_);" d="M213.6,317.6l-115.3,0.1
	c-11.4,0-22.1-9.4-24-21.1L31.4,30.4C29.6,18.7,37.3,9.3,48.6,9.3l115.3-0.1c11.4,0,22.1,9.4,24,21.1l42.9,266.2
	C232.7,308.2,225,317.6,213.6,317.6z"/>
<path class="st3" d="M45.2,89.1c-1.1,0-2-0.8-2.2-1.9l-3.1-19.4c-0.2-0.8,0.3-1.7,1.2-1.9c0.1,0,0.2,0,0.4,0c1.1,0,2,0.8,2.2,1.9
	l3.1,19.4c0.2,0.8-0.3,1.7-1.2,1.9C45.4,89.1,45.3,89.1,45.2,89.1z"/>
<path class="st3" d="M52.1,131.9c-1.1,0-2-0.8-2.2-1.9l-5.2-32.4c-0.2-0.8,0.3-1.7,1.2-1.9c0.1,0,0.2,0,0.4,0c1.1,0,2,0.8,2.2,1.9
	l5.2,32.4c0.2,0.8-0.3,1.7-1.2,1.9C52.3,131.9,52.2,131.9,52.1,131.9z"/>
<linearGradient id="SVGID_00000150810552178521156980000004187231789390324358_" gradientUnits="userSpaceOnUse" x1="85.3612" y1="352.1129" x2="183.4662" y2="55.8013" gradientTransform="matrix(1 0 0 -1 0 366)">
	<stop  offset="0" style="stop-color:#FFFFFF"/>
	<stop  offset="1" style="stop-color:#ECF1FF"/>
</linearGradient>
<path style="fill:url(#SVGID_00000150810552178521156980000004187231789390324358_);" d="M214.3,312.1l-110.9,0.1
	c-8.1,0-15.7-6.7-17-15L43.2,29.6c-1.3-8.3,4.1-15,12.2-15l110.9-0.1c8.1,0,15.7,6.7,17,15l43.2,267.6
	C227.8,305.4,222.3,312.1,214.3,312.1z"/>
<path class="st12" d="M180.8,240.1l-61.6,1l-2.5,71.1h28.4l2.6-34l5.9-1.3l-0.8,35.3h28.1C182.9,262.1,180.8,240.1,180.8,240.1z"/>
<path class="st3" d="M121.5,310.9c0.1,0,0.2-0.1,0.3-0.2l2.4-58.5c0-0.1-0.1-0.3-0.2-0.3s-0.3,0.1-0.3,0.2l-2.4,58.5
	C121.3,310.7,121.4,310.9,121.5,310.9z"/>
<path class="st13" d="M239.9,183.4l5.2-6.3c0.6-0.9,3.5-1.4,4.5-1.4l13.6-1.3l12.6-4.8c-0.1-1.5-1.4-2.7-2.9-2.6c-0.1,0-0.2,0-0.2,0
	l-10.1,2.5l-20.6-4c-1.2-0.2-2.4,0-3.3,0.8c-2.7,2-3.7,3.3-5.8,6.6l-1.4,2.6L239.9,183.4z"/>
<path class="st13" d="M255.9,169.8l8.5-3.8l2.9-3.7c0.8-1.1,2.3-1.4,3.5-0.7l0.3,0.1l-4.2,6.8l-7.2,3.1L255.9,169.8z"/>
<path class="st13" d="M238.9,166.3l6.5-3.4l9.3-3.5c0.6,1.4,0.2,3.1-1.1,4l-2.6,1.5l-0.5,5.8l-13.9-1.6L238.9,166.3z"/>
<path class="st13" d="M262.6,174.5l12.5,1.4c0.4-1.3-0.4-2.7-1.6-3.1l-9.3-2.2l-3.7,3L262.6,174.5z"/>
<path class="st14" d="M257.4,169.3c0.2,0,0.3-0.1,0.3-0.3c0-0.1-0.1-0.3-0.2-0.3l-7.1-1.6c-1.7-0.4-3.5-0.3-5.1,0.3l-3,1.1
	c-0.2,0-0.3,0.2-0.2,0.4c0,0.2,0.2,0.3,0.4,0.2c0,0,0,0,0.1,0l3-1.1c1.5-0.5,3.2-0.6,4.8-0.2L257.4,169.3z"/>
<path class="st15" d="M192.4,160.8l16.5,35.9l11.9-13.6c2.9-3.3,6.3-6.3,10-8.7l2.1-1.4c2,3.4,5.2,5.9,8.9,7.1l0.8,0.3l-1.2,3.5
	c-1.3,3.9-3.1,7.6-5.3,11l-17.6,27.2c-1.9,3-5.1,5.1-8.6,5.7h-0.2c-5.6,1-11.2-1.6-14.2-6.4c-7.2-11.7-19.9-32-19.9-32l2.5-26.4
	L192.4,160.8z"/>
<path class="st6" d="M237.7,191.1c0.2,0,0.3-0.2,0.3-0.3c0-0.1-0.1-0.2-0.2-0.3c-5.3-1.6-9.7-5.3-12.3-10.2
	c-0.1-0.2-0.3-0.2-0.4-0.1c-0.2,0.1-0.2,0.3-0.1,0.4C227.7,185.7,232.2,189.4,237.7,191.1z"/>
<path class="st6" d="M203,203.2c0.1,0,0.2,0,0.2-0.1c1.8-2.3,3.8-4.5,6.1-6.4c0.1-0.1,0.1-0.3,0-0.4c-0.1-0.1-0.3-0.1-0.4,0
	c-2.2,2-4.3,4.2-6.1,6.5c-0.1,0.1-0.1,0.3,0.1,0.4C202.8,203.1,202.9,203.2,203,203.2z"/>
<path class="st15" d="M184.1,232.4c0-2.7-0.2-5.3-0.3-7.7c-0.1-4.4-0.2-8.9-0.3-13.3c0-6.6-0.3-13.1-0.5-19.7
	c-0.1-6.4-1.1-13.3,0-19.6c0.8-4.9,4.9-8.4,9.6-9.9c-0.8-2.5-2.1-4.8-3.7-6.8c-4.3-5.4-11.2-7.7-17.8-9.7
	c-7.6-2.4-15.4-4.8-23.3-4.6c-3.7,0.1-7.3,0.7-10.8,1.8c-4.7,2.1-9.6,3.8-14.5,5.3c-6.3,2.2-12.7,5-16.9,10.2
	c-4,4.8-5.6,11.1-7.2,17.1c-4,15.7-7.4,25-7.6,41.1c0,5.1,0.5,10.7,3.9,14.4c2.8,3.1,7.2,4.5,11.4,4.5c4,0.2,8.1,0.1,12.1-0.4
	c-0.5,2.2-0.5,9.5,1.3,10.9c1.9,1.2,4,2,6.2,2.1c14.9,2.1,30,1.7,44.8-1c3.7-0.7,7.7-1.6,10.3-4.3
	C183.5,240.1,184.1,236.3,184.1,232.4z"/>
<path class="st6" d="M120.3,163C120.4,163,120.4,163,120.3,163c0.3-0.1,0.3-0.2,0.3-0.4c-1.2-3.7-3.4-7.1-6.3-9.7
	c-0.1-0.1-0.3-0.1-0.4,0c-0.1,0.1-0.1,0.3,0,0.4c2.8,2.5,4.9,5.8,6.1,9.4C120.1,162.9,120.2,163,120.3,163z"/>
<path class="st6" d="M116.9,204.5c0.2,0,0.3-0.1,0.3-0.3l3.8-20.8c0-0.2-0.1-0.3-0.2-0.4c-0.2,0-0.3,0.1-0.4,0.2l-3.8,20.8
	C116.6,204.3,116.7,204.5,116.9,204.5z"/>
<path class="st13" d="M141.9,121.1l-1.3,23.8c0,1.8,0.5,3.6,1.3,5.2c2.7,5.2,9.1,7.3,14.4,4.6c1.9-1,3.2-2.9,3.4-5.1l1.9-22.7
	L141.9,121.1z"/>
<path class="st6" d="M173.4,111.6c0.4-1.9,0.6-3.9,0.5-5.9v-2.9c0.1-1.1-0.1-2.3-0.4-3.4c-0.4-1.2-1.4-2.1-2.5-2.5
	c-1.2-0.4-2.5-0.1-3.4,0.8c-0.6,0.7-1,1.6-1.3,2.5l-1.2,3.8c-0.5,1.2-0.8,2.6-0.8,3.9c0.1,2.2,0.9,4.3,2.2,6c0.4,0.8,1,1.4,1.8,2
	C171,117.7,172.8,113.8,173.4,111.6z"/>
<path class="st13" d="M169.5,93.4c-2-2.4-5.4-3-8.6-2.9c-6.3,0.2-12.3,2.5-17,6.6c-1.7,1.4-3.1,3.2-4,5.2c-1.7,3.9-0.8,8.5-1.7,12.7
	c-0.5-0.2-1.1-0.2-1.6-0.2c-1.5,0.3-2.8,1.2-3.4,2.6c-0.6,1.4-0.8,2.9-0.6,4.4c0.2,1.8,1.1,3.4,2.4,4.5c1.9,1.4,4.5,1.2,6.9,1
	c0.2,4.3,2.8,8.3,6,11.1c3.7,3.2,8.6,4.7,13.4,4.2c4.3-0.3,8-3.2,9.4-7.3c1.4-3.7,1.3-7.7,1.2-11.6c-0.2-8.5-0.4-17-0.7-25.4
	C171.2,96.4,170.6,94.7,169.5,93.4z"/>
<path class="st6" d="M151.2,112.3c-0.5,0.1-1,0.2-1.5,0.4c-0.4,0.2-0.7,0.5-0.6,0.7c0.1,0.3,0.9,0.5,1.6,0.6
	c1.7,0.1,3.4,0.1,5.1-0.2c0.7,0,1.5-0.2,2.1-0.6c0.4-0.3,0.3-0.7-0.2-0.9c-0.4-0.1-0.8-0.2-1.2-0.2C154.8,112,153,112,151.2,112.3z"
	/>
<path class="st6" d="M169,110.6c0.5,0,1,0.1,1.5,0.3c0.4,0.2,0.7,0.4,0.6,0.7c-0.1,0.4-0.8,0.6-1.5,0.7c-1.7,0.3-3.4,0.3-5.1,0.2
	c-0.8,0-1.5-0.1-2.2-0.5c-0.4-0.3-0.3-0.7,0.1-1c0.4-0.2,0.8-0.3,1.2-0.3C165.4,110.5,167.2,110.4,169,110.6z"/>
<path class="st14" d="M153.2,120.2c0.5,0,0.9-0.7,0.9-1.6c0-0.8-0.5-1.5-1-1.5s-0.9,0.7-0.9,1.6
	C152.2,119.6,152.7,120.2,153.2,120.2z"/>
<path class="st14" d="M167.1,118.3c0,0.8-0.3,1.5-0.8,1.5s-0.9-0.6-1-1.5c0-0.8,0.3-1.5,0.8-1.5S167.1,117.4,167.1,118.3z"/>
<path d="M161.2,131.4c0.2,0,0.4,0,0.6,0s0.3-0.2,0.3-0.4s-0.2-0.3-0.4-0.3c-2.6,0.2-5.1-0.9-6.6-3c-0.1-0.1-0.3-0.2-0.5-0.1
	c-0.1,0.1-0.2,0.3-0.1,0.5C156.2,130.2,158.6,131.4,161.2,131.4z"/>
<path d="M158.5,142.7c0.2,0,0.5,0,0.7,0s0.3-0.2,0.3-0.3c0-0.2-0.2-0.3-0.3-0.3c-7.6,0.3-14.5-4.6-16.5-12c0-0.2-0.2-0.3-0.4-0.2
	c-0.2,0-0.3,0.2-0.2,0.4C144,137.6,150.8,142.7,158.5,142.7z"/>
<path class="st6" d="M138.7,117.7c0.1-0.1,0.3-0.2,0.4-0.3c1.1-1.6,1.9-3.4,2.6-5.2c0.8-1.8,2.8-2.5,3.6-4.3c0.4-0.9-0.3-3,0.1-3.9
	c0.2-0.4,0.9-2.3,1.3-2.4c5.1-0.9,10,0.1,15.2,0.1c2.6,0,5.4-0.8,8.2-1.1c1.2-0.1,2.8,0.2,3.4-0.9c0.6-1,1-2,1.4-3
	c0.4-1.2,0.6-2.4,0.5-3.6c-0.3-3.1-2.4-5.6-4.5-8c-1.9-2.1-4.3-3.6-7.1-4.3c-2.2-0.4-4.5,0.6-6.7,0.3c-1.7-0.2-3.2-1.1-4.9-1
	c-1.8,0.1-3.3,1.4-4.8,2.5c-2.4,1.7-5.1,2.9-7.9,3.6c-1.6,0.3-3.2,0.7-4.8,1.2c-1.6,0.5-2.9,1.7-3.6,3.2c-0.8,1.9-0.1,4-0.3,6
	c-0.2,2.2-1.3,4.1-1.8,6.3c-0.6,2.5,1.1,5,1.4,7.5c-0.2,2.8,1.9,5.3,4.7,5.7c1,0.4,0.5,0.8,1.5,1.2
	C137.2,117.3,138.1,117.9,138.7,117.7z"/>
<path class="st13" d="M161.7,117.4c0.2,0.4,0.5,0.7,0.8,1c0.8,0.8,1.5,1.8,2.1,2.8c0.1,0.2,0.2,0.5,0.2,0.7c0,0.4-0.2,0.7-0.5,1
	c-0.8,0.8-1.7,1.4-2.6,1.9c-0.2,0.2-0.5,0.2-0.8,0.2c-0.2-0.1-0.4-0.4-0.4-0.7c-0.1-1.3,0.1-2.6,0-3.9c-0.1-1.1-0.5-2.1-0.6-3.1
	c0-0.3,0-0.7,0.1-1c0.1-0.3,0.5-0.6,0.8-0.6s0.7,0.3,0.7,0.6C161.5,116.6,161.5,117,161.7,117.4z"/>
<path d="M161.6,125.5c0.1,0,0.2,0,0.2-0.1l2.5-2.1c0.9-0.7,1-2,0.3-2.9l-2.6-3.5c-0.3-0.4-0.4-0.9-0.2-1.3c0.1-0.2,0-0.4-0.2-0.4
	c-0.2-0.1-0.4,0-0.4,0.2c-0.2,0.7-0.1,1.4,0.3,1.9l2.6,3.5c0.5,0.6,0.3,1.5-0.2,2l-2.5,2.1c-0.1,0.1-0.2,0.3,0,0.5
	C161.4,125.5,161.5,125.5,161.6,125.5z"/>
<path class="st13" d="M138.7,114.7c1.4,0,2.6,1.1,2.7,2.5c0.2,0.7,0.1,1.5-0.2,2.2c-0.3,0.6-0.9,1-1.5,1.3c-1.1,0.5-2.4,0.5-3.5,0
	c-0.5-0.2-0.9-0.5-1.2-1c-0.2-0.5-0.3-1.1-0.2-1.7c0.1-0.6-1-1.1-1-1.7c0-0.4,1.2-1,1.5-1.2C136.5,114.7,137.6,114.6,138.7,114.7z"
	/>
<path d="M136.9,123c0.2,0,0.3-0.1,0.3-0.3c0-1.6,0.9-3.1,2.3-3.9c0.2-0.1,0.2-0.3,0.1-0.4c-0.1-0.1-0.3-0.2-0.4-0.1
	c-1.6,0.9-2.6,2.7-2.6,4.5C136.5,122.8,136.7,123,136.9,123z"/>
<path class="st15" d="M151.6,148.2c3.2,0.6,5.5-1.1,7.4-3.4c0.5-0.6,1.6-2,1.6-2c0.6,0.3,1.2,0.6,1.8,1c1.1,0.8,1,2.4,0.7,3.8
	c-0.7,3.4-2.1,7-5.1,8.7c-1.9,0.9-3.9,1.4-6,1.5c-3.3,0.4-6.9,0.7-9.9-0.8c-2.5-1.4-4.4-3.6-5.4-6.3c-1.2-2.8-0.3-8.1,3.6-8.7
	c0.9,1.1,2,2.1,3.1,2.9C146,146.3,148.8,147.4,151.6,148.2z"/>
<path class="st6" d="M155.8,156.8l0.4-0.3c3.5-3,5.7-7.2,6.3-11.8c0-0.2-0.1-0.3-0.3-0.4c-0.2,0-0.3,0.1-0.4,0.3
	c-0.5,4.3-2.5,8.2-5.7,11c-0.6-1.7-1.3-3.4-2.2-5.1c-0.1-0.2-0.3-0.2-0.4-0.2c-0.2,0.1-0.2,0.3-0.2,0.4c0.9,1.7,1.7,3.5,2.3,5.4
	L155.8,156.8z"/>
<path class="st6" d="M154,186c0.2,0,0.3-0.1,0.3-0.3c-0.1-5.1-0.4-10.4-0.7-15.4c-0.3-5.1-0.5-10.3-0.7-15.4c0-0.2-0.1-0.3-0.3-0.3
	c-0.2,0-0.3,0.1-0.3,0.3c0.1,5.1,0.4,10.4,0.7,15.4c0.3,5.1,0.5,10.3,0.7,15.4C153.7,185.8,153.8,186,154,186z"/>
<path class="st6" d="M148.5,157l0.1-0.4c0.3-1.9,1.3-3.7,2.6-5c0.1-0.1,0.1-0.3,0-0.4c-0.1-0.1-0.3-0.1-0.4,0
	c-1.4,1.3-2.3,3-2.7,4.9c-4.3-2.5-7.7-6.2-9.7-10.7c-0.1-0.2-0.3-0.2-0.4-0.1c-0.1,0.1-0.2,0.2-0.1,0.4c2.2,4.7,5.8,8.7,10.4,11.2
	L148.5,157z"/>
<path class="st6" d="M183.5,201.8c0.2,0,0.3-0.1,0.3-0.3c0-2.7,0.1-7,0.1-11.2c0-4.1,0.1-8.4,0.1-11.2c0-0.2-0.1-0.3-0.3-0.3
	s-0.3,0.1-0.3,0.3c0,2.7-0.1,7-0.1,11.2c0,4.1-0.1,8.4-0.1,11.2C183.1,201.7,183.3,201.8,183.5,201.8z"/>
<path class="st3" d="M138.3,172.1c-1.2,20.9-4,41.7-8.2,62.3c15.4,0.7,30.1,1,45.5,1.7c4.2-20.6,6.7-41.6,7.5-62.7
	C168.5,171.9,153.1,172.2,138.3,172.1z"/>
<path class="st12" d="M174.5,182.3c-9.2,0.1-18.4-0.2-27.6-1.1c-0.2,1.1-0.3,3-0.6,4.1c9.2,1,18.4,1.4,27.6,1.4
	C174.2,184.9,174.3,184.2,174.5,182.3z"/>
<path class="st13" d="M160.3,205.5l5.9-2.9c1-0.5,2-1.2,2.7-2.1l4.2-4.6c0.3-0.3,0.8-0.4,1.2-0.1l0.1,0.1c1,1.2,1.2,2.9,0.4,4.3
	l-4.1,6.1c-0.1,0.1-0.1,0.4,0.1,0.5c0.1,0,0.1,0.1,0.2,0.1h13.1l3.7-0.1c0.6,0,1.1,0.5,1.1,1.1v0.1v0.4c-0.1,1.1-0.8,2.1-1.9,2.4
	l-1.3,0.4l-3.2,9c-1,2.7-3.5,4.6-6.4,4.7l-24.4-0.6l-1.5-14L160.3,205.5z"/>
<path class="st15" d="M120,205.8l17.5,1.3l15,2.2l-0.9,3.5c-0.7,2.6-0.4,5.5,0.8,7.9l1.9,3.6l-12.6,4.7l-22.1,5.7l-2.5-22.7
	L120,205.8z"/>
<path d="M178.3,223c0.1,0,0.2-0.1,0.3-0.2l3.7-10.1c0.1-0.2,0-0.3-0.2-0.4c-0.2,0-0.3,0-0.4,0.2l-3.8,10.1c-0.1,0.2,0,0.3,0.2,0.4
	C178.2,223,178.3,223,178.3,223z"/>
<path d="M170.2,207.2c0.1,0,0.1,0,0.2,0c0.2,0,0.3-0.2,0.3-0.3c0-0.2-0.2-0.3-0.3-0.3c-0.5,0-1-0.1-1.4-0.4
	c-0.1-0.1-0.3-0.1-0.4,0.1c-0.1,0.1-0.1,0.3,0.1,0.4C169.1,207,169.7,207.2,170.2,207.2z"/>
<path class="st6" d="M110.7,207.3c7.7-1.1,15.4-1.3,23.1-0.6c0.2,0,0.3-0.1,0.4-0.3c0-0.2-0.1-0.3-0.3-0.4
	c-7.7-0.7-15.5-0.5-23.2,0.6c-0.2,0-0.3,0.2-0.3,0.3C110.4,207.2,110.5,207.3,110.7,207.3z"/>
<path class="st6" d="M142.6,225.3c0.2,0,0.3-0.1,0.3-0.3v-0.1c-2.3-4.6-2.3-10.1,0.1-14.7c0.1-0.1,0-0.3-0.1-0.4
	c-0.1-0.1-0.3,0-0.4,0.1c-2.5,4.8-2.5,10.5-0.1,15.3C142.4,225.3,142.5,225.3,142.6,225.3z"/>
<path class="st6" d="M147.7,224.5c-0.6-0.6-0.8-1.5-0.5-2.3c0.2-0.6,0.9-0.9,1.5-0.8c0.7,0.2,1.1,0.9,0.9,1.6c0,0.5-0.3,1-0.6,1.3
	c-0.2,0.2-0.5,0.3-0.8,0.4C148.1,224.6,147.9,224.6,147.7,224.5z M149.1,222.9c0.1-0.4-0.1-0.8-0.5-0.9c-0.3-0.1-0.7,0.1-0.8,0.4
	c-0.2,0.5-0.1,1.1,0.3,1.5c0.1,0,0.2,0.2,0.6-0.1C148.9,223.6,149.1,223.2,149.1,222.9z"/>
<path class="st3" d="M148.1,275.5c0.1,0,0.3-0.1,0.3-0.3c0.7-7.2,1-14.5,0.9-21.7c0-0.2-0.1-0.3-0.3-0.3s-0.3,0.1-0.3,0.3
	c0.1,7.2-0.2,14.4-0.9,21.6C147.8,275.3,147.9,275.5,148.1,275.5z"/>
<path class="st3" d="M155,275.1c0.1,0,0.3-0.1,0.3-0.2c1.4-7.1,2.4-14.3,3.1-21.4c0-0.2-0.1-0.3-0.3-0.3c-0.2,0-0.3,0.1-0.3,0.2
	c-0.7,7.1-1.7,14.3-3.1,21.4C154.7,274.9,154.8,275.1,155,275.1C154.9,275.1,155,275.1,155,275.1z"/>
<path class="st3" d="M124,263.9c4.9-1.6,9.2-7,10.2-12.5c0-0.2-0.1-0.3-0.2-0.3c-0.2,0-0.3,0.1-0.3,0.2c-1,5.4-5.2,10.6-9.8,12.1
	c-0.1,0-0.2,0.2-0.2,0.4C123.7,263.8,123.8,263.9,124,263.9z"/>
<path class="st3" d="M181.3,260.6c0.2,0,0.3-0.1,0.3-0.3c0-0.1,0-0.2-0.1-0.2c-3.4-2.8-5.4-6.9-5.7-11.3c0-0.2-0.1-0.3-0.3-0.3
	s-0.3,0.1-0.3,0.3c0.3,4.5,2.4,8.8,5.9,11.7C181.1,260.5,181.2,260.6,181.3,260.6z"/>
<path class="st14" d="M242.5,180.7c-0.1,0-0.2,0-0.2-0.1c-0.2-0.1-0.2-0.4-0.1-0.5l2.6-3.2c0.9-1.3,4.8-1.6,4.8-1.6l12.8-1.2
	c0.1,0,0.1,0,0.2,0l12.1,1.3c0.1-1-0.5-2-1.5-2.3l-3.6-0.8c-0.2,0-0.3-0.2-0.3-0.3c0-0.2,0.1-0.3,0.2-0.4l5.8-2.2
	c-0.1-0.5-0.4-1-0.8-1.4c-0.5-0.4-1.1-0.6-1.7-0.6c-0.1,0-0.1,0-0.2,0l-5.7,1.4c-0.1,0-0.3,0-0.4-0.1c-0.1-0.1-0.1-0.3,0-0.4l4-6.4
	c-1-0.5-2.3-0.3-3,0.7l-3,3.7l-0.1,0.1l-6.2,2.7c-0.2,0.1-0.4,0-0.5-0.2c-0.1-0.2,0-0.4,0.2-0.5l6.1-2.7l2.9-3.7
	c0.9-1.2,2.6-1.6,4-0.8l0.3,0.1c0.1,0,0.1,0.1,0.2,0.2c0,0.1,0,0.2,0,0.3l-3.7,6l4.9-1.2c0.1,0,0.2,0,0.3,0c0.8-0.1,1.6,0.2,2.3,0.8
	c0.6,0.5,1,1.3,1.1,2.1c0,0.2-0.1,0.3-0.2,0.4l-5,1.9l2.5,0.6c1.5,0.5,2.3,2,1.9,3.5c0,0.2-0.2,0.3-0.4,0.3l-12.5-1.4h-0.1
	l-12.8,1.2c-1.2,0.1-3.8,0.5-4.3,1.3l-2.7,3.3C242.7,180.6,242.6,180.7,242.5,180.7z"/>
<path class="st14" d="M250.7,167.7c-0.2,0-0.4-0.2-0.4-0.4l0.2-2.5c0-0.1,0.1-0.2,0.2-0.3l2.6-1.5c1.1-0.8,1.5-2.2,1-3.5
	c-0.1-0.2,0-0.4,0.2-0.5s0.4,0,0.5,0.2c0.7,1.6,0.2,3.4-1.2,4.4l-2.5,1.4l-0.2,2.3C251.1,167.5,250.9,167.7,250.7,167.7z"/>
<path class="st14" d="M261,172.5c-0.1,0-0.3-0.1-0.3-0.2c-0.1-0.2,0-0.4,0.2-0.5c2.9-1.3,5.4-2.8,5.8-3.5c0.1-0.2,0.3-0.2,0.5-0.1
	c0.2,0.1,0.2,0.3,0.1,0.5c-0.7,1.1-3.7,2.7-6.1,3.8C261.1,172.5,261,172.5,261,172.5z"/>
<path class="st14" d="M262.5,174.8c-0.1,0-0.3-0.1-0.3-0.2c-0.1-0.2,0-0.4,0.2-0.5l7.3-2.5c0.2-0.1,0.4,0,0.5,0.2
	c0.1,0.2,0,0.4-0.2,0.5l-7.3,2.5C262.6,174.8,262.6,174.8,262.5,174.8z"/>
<path class="st6" d="M379.8,247c0,0-1.9,19.9-0.5,65.2h27.5l-0.7-29.4l5.8,1.3l2.2,28.1h15.5c4.6,0,8.9-1.7,12.1-4.6l-2.1-57.4
	L379.8,247z"/>
<path class="st16" d="M311.8,148.4l-0.2-10.9l-1.5-7.9l1.2-6.5c0.1-0.4-0.2-0.7-0.5-0.8c-0.1,0-0.2,0-0.3,0l-1.7,0.6
	c-1.6,1.3-2.6,3.1-2.9,5.1c-0.3,2.1-0.9,4.2-1.7,6.1l-2.8,9.1l2.1,5.6L311.8,148.4z"/>
<path class="st16" d="M307.3,135.8l-9.2-5.8c-1-0.6-2.2-0.9-3.3-0.7l-2.5,0.4c-0.8,0.1-1.5,0.6-1.9,1.4l-0.4,0.8
	c-0.4,0.8-0.4,1.7,0.1,2.5l0.3,0.5l-1.9,7.8c-0.5,2.1,0.3,4.2,2,5.5l1.3,0.9c0.8,0.6,2,0.6,2.8,0.1l5.1,5.4l3.5,1.1l4.5,4.2
	l6.1-10.8L307.3,135.8z"/>
<path d="M294.6,133l-1.1-0.9c-0.1-0.1-0.1-0.3,0-0.4c0.1-0.1,0.3-0.1,0.4,0l0.9,0.7l1.2-0.1l0.2-1.2c0-0.1,0.2-0.2,0.3-0.2
	s0.2,0.2,0.2,0.3l-0.3,1.7L294.6,133z"/>
<path d="M295.4,149c-0.2-0.1-0.3-0.2-0.2-0.4l4.1-12.2l-1.7-3.3l-1.4-0.2c-0.1,0-0.2-0.2-0.2-0.3c0-0.1,0.2-0.2,0.3-0.2l1.7,0.3
	l1.9,3.8v0.1l-4.1,12.3C295.6,148.9,295.5,149,295.4,149z"/>
<path d="M294.4,138c-0.8-0.1-1.5-0.5-2.1-1l-2.1-1.8c-0.1-0.1-0.1-0.3,0-0.4c0.1-0.1,0.3-0.1,0.4,0l2.1,1.8c1,0.9,2.4,1.1,3.7,0.7
	l3.1-1.2c0.1-0.1,0.3,0,0.4,0.2c0.1,0.1,0,0.3-0.2,0.4l-3.1,1.2C295.8,138.1,295.1,138.1,294.4,138z"/>
<path d="M293.7,142.1c-0.8-0.1-1.5-0.5-2.1-1l-2-1.8c-0.1-0.1-0.1-0.3,0-0.4c0.1-0.1,0.3-0.1,0.4,0l2,1.8c0.9,0.8,2.2,1.1,3.4,0.8
	l2.4-0.7c0.1,0,0.3,0,0.3,0.2c0,0.1,0,0.3-0.2,0.3l-2.4,0.7C294.9,142.2,294.3,142.2,293.7,142.1z"/>
<path d="M293.4,146.1c-0.7-0.1-1.4-0.4-2-0.9l-2.7-2.3c-0.1-0.1-0.1-0.3,0-0.4c0.1-0.1,0.3-0.1,0.4,0l2.7,2.3c0.8,0.7,1.9,1,2.9,0.8
	l1.7-0.3c0.1,0,0.3,0.1,0.3,0.2c0,0.2-0.1,0.3-0.2,0.3l-1.7,0.3C294.3,146.2,293.9,146.2,293.4,146.1z"/>
<path d="M302.2,147.3c-0.1,0-0.2-0.1-0.2-0.2c-0.6-4.2,0-8.5,1.7-12.4c0.1-0.1,0.2-0.2,0.4-0.1c0.1,0.1,0.2,0.2,0.1,0.4
	c-1.7,3.8-2.3,8-1.7,12.1C302.5,147.1,302.4,147.3,302.2,147.3z"/>
<path class="st17" d="M382.7,161.7c-1.1,0.8-44.7,14.4-44.7,14.4l-18.3-26.2l-6.6-2.3l-0.5,2.1c-1,3.9-4.4,5.9-8.2,7.1l1.8,7.8
	l22.4,32c3.2,2.8,7.5,4,11.7,3.1l46.3-9.9L382.7,161.7z"/>
<path class="st3" d="M341.3,178.5L341.3,178.5l-3.5-2.1c-0.2-0.1-0.2-0.3-0.1-0.5c0.1-0.2,0.3-0.2,0.5-0.1l3.4,2.1
	c0.2,0.1,0.2,0.3,0.1,0.5C341.6,178.4,341.4,178.5,341.3,178.5z"/>
<path class="st3" d="M308.8,163.3c-0.1,0-0.2-0.1-0.2-0.2c-0.1-0.2,0-0.4,0.1-0.5c4.1-2.3,7.6-5.5,10.2-9.3c0.1-0.2,0.3-0.2,0.5-0.1
	c0.2,0.1,0.2,0.3,0.1,0.5c-2.7,4-6.3,7.2-10.5,9.5C309,163.3,308.9,163.3,308.8,163.3z"/>
<path class="st17" d="M408.4,152l32.6,8.2l9.3,14.7l-6.7,68l-3.7,10l-24.1,3.4c-7.2,1-14.5,1.1-21.7,0.3l-14.4-1.6l-4.4-8.9
	l-8.9-73.5c-0.5-3.8,1.6-7.4,5.1-8.9l22-9.6L408.4,152z"/>
<path class="st3" d="M436.2,307.6c0.1,0,0.3-0.1,0.3-0.3l-0.9-48.7c0-0.1-0.1-0.2-0.3-0.2c-0.1,0-0.2,0.1-0.2,0.3l0.9,48.7
	C436,307.5,436.1,307.6,436.2,307.6z"/>
<path class="st3" d="M375.6,242.7h0.1c4.8-2.7,9.1-9.5,9.3-9.8c0.1-0.1,0-0.3-0.1-0.3c-0.1-0.1-0.3,0-0.3,0.1c0,0.1-4.4,6.9-9.1,9.6
	c-0.1,0.1-0.2,0.2-0.1,0.3C375.4,242.6,375.5,242.7,375.6,242.7z"/>
<path class="st3" d="M439.3,241c0.1,0,0.3-0.1,0.3-0.2c0-0.1-0.1-0.2-0.2-0.2c-4.8-2-8.9-5.5-11.6-10c-0.1-0.1-0.2-0.2-0.3-0.1
	c-0.1,0.1-0.1,0.2-0.1,0.3C430.1,235.3,434.3,238.9,439.3,241C439.2,241,439.3,241,439.3,241z"/>
<path class="st3" d="M387.8,180.2l-16.5,1.5l0.6,6.7l16.5-1.5L387.8,180.2z"/>
<path class="st16" d="M414,258.8l-15.3,8.5l-8.8,6c1.7,1.2,3.9,1.4,5.7,0.5l4.1-1.9c1,3.3,0.8,5.8-1.8,9.7l-4.8,3l-2.3,1.9
	c-1,1.2-0.5,1.8,0.5,2.8l-0.5,1.4c0.2,0.9,1,1.4,1.8,1.3l2-0.4c0.8-0.2,1.5-0.6,2.2-1l6.6-4.3c1.4-1,4.4-3.7,5.8-5l10.9-15.1
	L414,258.8z"/>
<path class="st14" d="M407.7,280.6c0.1-0.1,0.1-0.2,0-0.3c-0.1-0.1-0.2-0.1-0.2,0l-5.1,4.8l-5.1,3.5l-5.3,2c-0.1,0-0.1,0.2-0.1,0.2
	c0,0.1,0.1,0.1,0.2,0.1l5.3-2.1l5.2-3.5L407.7,280.6z"/>
<path class="st14" d="M400.2,284.2l4.3-5c0.1-0.1,0-0.2,0-0.3c-0.1-0.1-0.2,0-0.2,0l-4.3,5l-4.6,3.4l-3.8,1.5
	c-0.1,0-0.1,0.1-0.1,0.2s0.1,0.1,0.2,0.1l3.8-1.5L400.2,284.2z"/>
<path class="st18" d="M410.1,261l0.2-5.2c0.1-1.8,0.6-3.6,1.7-5.2l21.6-32.4l-7.4-42.6c0-2.2,0.4-4.3,1.4-6.3l0.8-1.7
	c3-6.4,10.7-9.2,17.2-6.1c1.9,0.9,3.6,2.3,4.8,4c2,2.8,3,6.2,2.8,9.6l3.8,42.6c-0.3,4.3-1.9,8.5-4.5,11.9l-24.3,31.5
	c-0.6,0.7-1.3,1.3-2.1,1.7l-5.8,3.3c-2.2-3.3-5.8-5.2-9.7-5.1H410.1z"/>
<path class="st3" d="M441.9,217.4c0,0,0.1-0.1,0.1-0.2c0-0.1-0.1-0.2-0.2-0.2c-2.7-0.1-5.4,0.5-7.9,1.5c-0.1,0.1-0.2,0.2-0.1,0.3
	c0.1,0.1,0.2,0.2,0.3,0.1c2.4-1.1,5.1-1.6,7.7-1.5C441.8,217.5,441.8,217.4,441.9,217.4z"/>
<path class="st3" d="M426.2,259.6c0.1-0.1,0.1-0.2,0-0.3c-3.6-4-8.7-6.3-14.1-6.4c-0.1,0-0.2,0.1-0.2,0.2c0,0.1,0.1,0.2,0.2,0.2
	c5.3,0.1,10.2,2.4,13.8,6.3C425.9,259.7,426.1,259.7,426.2,259.6z"/>
<path class="st14" d="M303.2,156.2h-0.1l-3.6-1.2c-0.1,0-0.1-0.1-0.2-0.1l-5.1-5.4c-0.1-0.1-0.1-0.4,0-0.5c0.1-0.1,0.4-0.1,0.5,0
	l5,5.4l3.5,1.1c0.2,0.1,0.3,0.3,0.2,0.5C303.5,156.1,303.4,156.2,303.2,156.2z"/>
<path class="st14" d="M293.2,150c-0.6,0-1.2-0.2-1.7-0.6l-1.3-0.9c-1.8-1.3-2.7-3.6-2.1-5.8l1.9-7.6l-0.2-0.3
	c-0.5-0.9-0.6-1.9-0.1-2.8l0.4-0.9c0.4-0.8,1.2-1.4,2.1-1.6l2.5-0.4c1.2-0.2,2.5,0,3.6,0.7l5.9,3.7c0.2,0.1,0.2,0.3,0.1,0.5
	c-0.1,0.2-0.3,0.2-0.5,0.1l-5.9-3.7c-0.9-0.6-2-0.8-3.1-0.6l-2.5,0.4c-0.7,0.1-1.3,0.6-1.6,1.2l-0.4,0.9c-0.3,0.7-0.3,1.5,0.1,2.1
	l0.3,0.5c0.1,0.1,0.1,0.2,0,0.3l-1.9,7.8c-0.5,1.9,0.3,3.9,1.9,5.1l1.3,0.9c0.7,0.5,1.7,0.6,2.4,0.1c0.2-0.1,0.4-0.1,0.5,0.1
	s0.1,0.4-0.1,0.5C294.3,149.9,293.8,150,293.2,150z"/>
<path class="st14" d="M313,147.9c-0.1,0-0.3-0.1-0.3-0.2l-1.2-2.4c0,0,0-0.1,0-0.2l-0.2-7.6l-1.5-7.9v-0.1l1.2-6.5
	c0-0.2-0.1-0.3-0.2-0.3h-0.1l-1.6,0.6c-1.5,1.2-2.4,3-2.7,4.9c-0.3,2.1-0.9,4.2-1.8,6.2c-0.1,0.2-0.3,0.3-0.5,0.2
	c-0.2-0.1-0.3-0.3-0.2-0.5c0.9-1.9,1.4-3.9,1.7-6c0.3-2.1,1.4-4,3-5.4c0,0,0.1,0,0.1-0.1l1.7-0.6c0.2-0.1,0.3-0.1,0.5,0
	c0.6,0.1,0.9,0.6,0.8,1.2l-1.2,6.4l1.5,7.9l0.2,7.6l1.2,2.3c0.1,0.2,0,0.4-0.2,0.5C313.1,147.9,313.1,147.9,313,147.9z"/>
<path class="st6" d="M435,134.4c0,0-16.1,15-11,47.5c0.7,4.5,3.3,13.6,6,16.1l-2.2-12.8c-5.2-30,11.7-50.2,11.7-50.2L435,134.4z"/>
<path class="st6" d="M382.1,140c0,0-19.3,21.8-13.1,53.6l0.2,1.5c-3.7-3.5-5.6-21.6-1.6-35.7c4.8-17.1,13.7-24.9,13.7-24.9
	L382.1,140z"/>
<path class="st18" d="M381.3,111.2l-7.5,2.5l7.5-4.7V111.2z"/>
<path class="st16" d="M394.5,162.7c-1.1-0.1-2.1-0.3-3.1-0.7s-1.8-1.2-2.1-2.2c-0.3-1,0.8-2,1.8-2.5c0-3.1-0.2-6.2-0.5-9.2
	c-3.9,0-7.1-3.1-8.7-6.6c-1.6-3.6-1.7-7.6-1.9-11.5c-0.3-8.4-0.6-16.8-0.9-25.2c-0.1-1.7,0.4-3.4,1.5-4.8c1.9-2.5,5.2-3.3,8.3-3.4
	c6.2-0.2,12.3,1.7,17.3,5.5c1.8,1.3,3.3,3,4.3,4.9c1.9,3.8,1.3,8.4,2.5,12.4c0.5-0.2,1.1-0.3,1.6-0.3c1.5,0.2,2.8,1.1,3.6,2.4
	c0.7,1.3,1,2.8,0.8,4.3c-0.1,1.7-0.8,3.4-2.1,4.6c-1.8,1.5-4.4,1.5-6.8,1.4c0.2,7.8,0.5,15.6,0.6,23.4c0.1,1.4-0.1,2.8-0.6,4
	c-0.6,1.1-1.6,2-2.8,2.5C403.4,163.8,398.8,163.3,394.5,162.7z"/>
<path class="st6" d="M401,116.4c0.5,0.1,1,0.2,1.5,0.5c0.4,0.2,0.7,0.6,0.6,1.1c-0.1,0.5-0.8,0.9-1.5,1.1c-1.7,0.4-3.4,0.4-5.1,0.1
	c-0.8,0-1.6-0.3-2.2-0.8c-0.4-0.4-0.3-1.1,0.1-1.5c0.4-0.2,0.8-0.4,1.2-0.4C397.5,116.2,399.3,116.2,401,116.4z"/>
<path class="st6" d="M383.2,116.3c-0.5,0.1-1,0.2-1.5,0.5c-0.4,0.2-0.6,0.6-0.6,1.1c0.1,0.5,0.9,0.8,1.6,0.9
	c1.7,0.3,3.4,0.2,5.1-0.1c0.8,0,1.5-0.3,2.1-0.8c0.3-0.4,0.3-1-0.1-1.3c0,0,0,0-0.1-0.1c-0.4-0.2-0.8-0.3-1.2-0.3
	C386.7,116,384.9,116,383.2,116.3z"/>
<path class="st19" d="M398.6,124c0,0.8,0.4,1.5,0.9,1.5s0.9-0.7,0.9-1.5s-0.4-1.5-0.9-1.5S398.6,123.1,398.6,124z"/>
<path class="st19" d="M385.7,124.4c0,0.8,0.4,1.5,0.9,1.5s0.9-0.7,0.9-1.5c0-0.8-0.4-1.5-0.9-1.5C386,122.9,385.6,123.6,385.7,124.4
	z"/>
<path d="M392.7,135.5c2.7,0,5.3-1.4,6.8-3.7c0.1-0.1,0-0.3-0.1-0.4c-0.1-0.1-0.3,0-0.4,0.1c-1.4,2.2-3.8,3.4-6.4,3.4
	c-0.2,0-0.3,0.1-0.3,0.3s0.1,0.3,0.3,0.3H392.7z"/>
<path d="M393.5,148.2c8,0,14.9-5.6,16.6-13.4c0-0.2-0.1-0.3-0.2-0.3c-0.1,0-0.3,0.1-0.3,0.2c-1.8,8.5-9.9,14.1-18.4,12.8
	c-0.2,0-0.3,0.1-0.3,0.2c0,0.2,0.1,0.3,0.2,0.3C391.8,148.1,392.6,148.2,393.5,148.2z"/>
<path class="st6" d="M412.5,122.4c-3.1-4.6-5.8-11-8.9-15.7c-7.8-0.9-15.6-0.8-23.4,0.4c-1.7-2.7,0.3-6,2.3-8.5
	c1.6-2.3,3.9-4,6.6-4.6c3.6-0.9,7-2.4,10.5-1.7c3.4,0.7,6.7,2.1,9.5,4.1c1.9,1.5,3.5,3.5,4.5,5.7c1.1,2.4,1.8,4.9,2.1,7.5
	c0.4,2,0.5,4,0.3,6C415.7,117.6,414.2,121.3,412.5,122.4z"/>
<path class="st13" d="M389.7,123.3c-0.2,0.4-0.5,0.7-0.8,1c-0.8,0.9-1.4,1.9-1.9,2.9c-0.1,0.2-0.2,0.5-0.2,0.8
	c0.1,0.4,0.3,0.7,0.5,0.9c0.8,0.7,1.8,1.3,2.7,1.7c0.2,0.2,0.5,0.2,0.8,0.1c0.2-0.2,0.4-0.4,0.3-0.7c0.1-1.3-0.3-2.6-0.3-3.9
	c0-1.1,0.3-2.1,0.4-3.2c0-0.3,0-0.7-0.2-1c-0.2-0.3-0.5-0.5-0.8-0.5c-0.3,0-0.7,0.3-0.6,0.6C389.9,122.5,389.9,122.9,389.7,123.3z"
	/>
<path d="M391.5,131.2c0.2,0,0.3-0.1,0.3-0.3c0-0.1,0-0.2-0.1-0.2l-2.6-1.9c-0.6-0.5-0.8-1.3-0.4-2l2.4-3.6c0.4-0.6,0.4-1.3,0.2-1.9
	c-0.1-0.1-0.2-0.2-0.4-0.1c-0.1,0.1-0.2,0.2-0.1,0.4c0.2,0.4,0.1,1-0.1,1.4l-2.4,3.6c-0.6,0.9-0.4,2.1,0.5,2.8l2.6,1.9
	C391.4,131.2,391.5,131.2,391.5,131.2z"/>
<path class="st13" d="M412.4,119.2c-0.6,0.1-1.2,0.3-1.7,0.7c-0.5,0.5-0.8,1.2-0.8,2c-0.1,0.7,0,1.5,0.3,2.1c0.4,0.6,0.9,1,1.6,1.2
	c1.1,0.4,2.4,0.3,3.4-0.2c0.5-0.2,0.9-0.6,1.1-1.1c0.2-0.5,0.2-1.1,0.1-1.7c-0.1-0.6-0.2-1.2-0.3-1.8c-0.1-0.4-0.1-0.9-0.5-1.1
	C414.6,119.1,413.5,119,412.4,119.2z"/>
<path d="M414.7,127.3c0.2,0,0.3-0.1,0.3-0.3c-0.1-1.8-1.2-3.4-2.8-4.3c-0.1-0.1-0.3,0-0.4,0.1c-0.1,0.1,0,0.3,0.1,0.4
	c1.5,0.7,2.4,2.2,2.5,3.8C414.4,127.1,414.5,127.3,414.7,127.3z"/>
<path class="st17" d="M410.5,146.2l-11,4.9l-0.5,5.6l-1.8-5.9l-6.4-1.2c-1.3-0.2-2.6,0.6-2.8,1.9c0,0.1,0,0.2,0,0.2l-0.5,5.8
	l11.6,5.5l15.9-8.7l-2-6.9c-0.3-0.9-1.3-1.5-2.2-1.2C410.6,146.1,410.6,146.2,410.5,146.2z"/>
<path class="st3" d="M405.1,253.2c0.2,0,0.3-0.1,0.3-0.3l-6.3-93.4c0-0.1-0.1-0.2-0.3-0.2c-0.1,0-0.2,0.1-0.2,0.3l6.3,93.4
	C404.8,253.1,404.9,253.2,405.1,253.2z"/>
<path class="st17" d="M416.4,112.1l-13.4,0.3l-3.5-0.5c-7.1-2.9-15.4-4.2-22-0.4l1.7-0.6c0,0-4.9-18.6,16.5-19.2
	C417,90.8,416.4,112.1,416.4,112.1z"/>
<path class="st20" d="M373,113.1c0.1,0.4,0.6,0.7,1,0.5c0.1,0,0.2-0.1,0.2-0.1c3.3-2.2,7.1-3.5,11.1-3.8c4.4-0.5,8.9,0.4,12.9,2.3
	c0.7,0.4,1.5,0.5,2.3,0.5c1.7-0.1,4.5-0.3,5.6-0.3c0.2,0,0.4-0.2,0.5-0.4c0-0.2,0-0.4-0.2-0.5h0.1C406.6,111.3,388.4,99.4,373,113.1
	z"/>
<path class="st3" d="M395.5,159.4c0.1,0,0.3-0.1,0.3-0.2c0-0.1-0.1-0.2-0.2-0.2l-6.8-2.8c-0.1-0.1-0.3,0-0.3,0.1
	c-0.1,0.1,0,0.3,0.1,0.3L395.5,159.4C395.5,159.3,395.5,159.4,395.5,159.4z"/>
<path class="st3" d="M404,158.8h0.1l9.6-4.5c0.1-0.1,0.2-0.2,0.1-0.3c-0.1-0.1-0.2-0.2-0.3-0.1l-9.6,4.5c-0.1,0-0.2,0.2-0.1,0.3
	C403.7,158.8,403.8,158.9,404,158.8z"/>
</svg>
