<svg width="39" height="39" viewBox="0 0 39 39" fill="none" xmlns="http://www.w3.org/2000/svg">
<rect x="0.5" y="0.75" width="38" height="38" rx="4" fill="#8C0AFA"/>
<path fill-rule="evenodd" clip-rule="evenodd" d="M11 14.25C11 13.4544 11.3161 12.6913 11.8787 12.1287C12.4413 11.5661 13.2044 11.25 14 11.25H16C16.7956 11.25 17.5587 11.5661 18.1213 12.1287C18.6839 12.6913 19 13.4544 19 14.25V16.25C19 17.0456 18.6839 17.8087 18.1213 18.3713C17.5587 18.9339 16.7956 19.25 16 19.25H14C13.2044 19.25 12.4413 18.9339 11.8787 18.3713C11.3161 17.8087 11 17.0456 11 16.25V14.25ZM11 24.25C11 23.4544 11.3161 22.6913 11.8787 22.1287C12.4413 21.5661 13.2044 21.25 14 21.25H16C16.7956 21.25 17.5587 21.5661 18.1213 22.1287C18.6839 22.6913 19 23.4544 19 24.25V26.25C19 27.0456 18.6839 27.8087 18.1213 28.3713C17.5587 28.9339 16.7956 29.25 16 29.25H14C13.2044 29.25 12.4413 28.9339 11.8787 28.3713C11.3161 27.8087 11 27.0456 11 26.25V24.25ZM21 14.25C21 13.4544 21.3161 12.6913 21.8787 12.1287C22.4413 11.5661 23.2044 11.25 24 11.25H26C26.7956 11.25 27.5587 11.5661 28.1213 12.1287C28.6839 12.6913 29 13.4544 29 14.25V16.25C29 17.0456 28.6839 17.8087 28.1213 18.3713C27.5587 18.9339 26.7956 19.25 26 19.25H24C23.2044 19.25 22.4413 18.9339 21.8787 18.3713C21.3161 17.8087 21 17.0456 21 16.25V14.25ZM26 22.25C26 21.9848 25.8946 21.7304 25.7071 21.5429C25.5196 21.3554 25.2652 21.25 25 21.25C24.7348 21.25 24.4804 21.3554 24.2929 21.5429C24.1054 21.7304 24 21.9848 24 22.25V24.25H22C21.7348 24.25 21.4804 24.3554 21.2929 24.5429C21.1054 24.7304 21 24.9848 21 25.25C21 25.5152 21.1054 25.7696 21.2929 25.9571C21.4804 26.1446 21.7348 26.25 22 26.25H24V28.25C24 28.5152 24.1054 28.7696 24.2929 28.9571C24.4804 29.1446 24.7348 29.25 25 29.25C25.2652 29.25 25.5196 29.1446 25.7071 28.9571C25.8946 28.7696 26 28.5152 26 28.25V26.25H28C28.2652 26.25 28.5196 26.1446 28.7071 25.9571C28.8946 25.7696 29 25.5152 29 25.25C29 24.9848 28.8946 24.7304 28.7071 24.5429C28.5196 24.3554 28.2652 24.25 28 24.25H26V22.25Z" fill="white"/>
</svg>
